<?xml version="1.0" encoding="UTF-8"?>
<svg id="Layer_2" data-name="Layer 2" xmlns="http://www.w3.org/2000/svg" viewBox="0 0 430 395">
  <defs>
    <style>
      .cls-1 {
        fill: #02c1d6;
      }

      .cls-2 {
        fill: #22c1d6;
      }

      .cls-3 {
        fill: #24c639;
      }

      .cls-4 {
        isolation: isolate;
      }
    </style>
  </defs>
  <g id="Layer_1-2" data-name="Layer 1-2">
    <g id="I_design." data-name="I design.">
      <g class="cls-4">
        <g class="cls-4">
          <path class="cls-3" d="m148.82,52v-23.68h3.46v23.68h-3.46Z"/>
          <path class="cls-3" d="m180.85,52v-2.53h-.06c-1.38,1.92-3.68,2.98-6.27,2.98-5.15,0-9.22-3.9-9.22-9.12s3.84-9.54,9.12-9.54c2.4,0,4.67.86,6.11,2.66h.06v-8.13h3.33v23.68h-3.07Zm-6.18-15.17c-3.39,0-6.05,2.85-6.05,6.34s2.72,6.24,6.05,6.24,6.18-2.75,6.18-6.11c0-3.62-2.43-6.46-6.18-6.46Z"/>
          <path class="cls-3" d="m190.64,44.58c.77,2.94,3.1,4.83,5.82,4.83,2.08,0,4.03-1.09,5.06-2.98h3.33c-1.38,3.65-4.7,6.02-8.51,6.02-4.99,0-9.02-4.42-9.02-9.15,0-5.6,4.22-9.5,8.93-9.5,5.22,0,9.18,4.03,9.18,9.12,0,.54,0,1.06-.1,1.66h-14.69Zm11.46-2.56c-.26-3.01-2.91-5.18-5.76-5.18s-5.44,2.14-5.7,5.18h11.46Z"/>
          <path class="cls-3" d="m215.73,38.98c-.16-1.28-.9-2.14-2.27-2.14-1.28,0-2.08.86-2.08,1.89,0,1.5,1.54,1.95,3.3,2.5,2.5.77,4.8,2.27,4.8,5.57s-2.5,5.66-5.95,5.66c-3.2,0-6.27-2.18-6.27-6.27h3.33c.16,2.14,1.25,3.23,3.01,3.23,1.54,0,2.56-.99,2.56-2.43,0-1.22-.93-2.02-3.01-2.69-4.35-1.38-5.09-3.26-5.09-5.28,0-3.14,2.66-5.22,5.57-5.22s5.34,2.05,5.44,5.18h-3.33Z"/>
          <path class="cls-3" d="m222.32,32.23v-3.9h3.33v3.9h-3.33Zm0,19.77v-17.73h3.33v17.73h-3.33Z"/>
          <path class="cls-3" d="m244.59,49.66c-1.38,1.86-3.58,2.78-6.11,2.78-5.09,0-9.47-4.38-9.47-9.18,0-5.34,4.16-9.47,9.5-9.47,2.3,0,4.74.96,6.14,2.53v-2.05h3.33v15.39c0,5.76-3.55,9.31-9.57,9.31-4.06,0-7.26-2.14-8.77-5.6h3.71c1.25,1.76,2.91,2.56,5.09,2.56,4.06,0,6.21-2.21,6.21-6.27h-.06Zm.06-6.53c0-4.16-3.17-6.3-6.24-6.3-3.29,0-6.08,2.85-6.08,6.3s2.82,6.27,6.11,6.27c3.87,0,6.21-3.39,6.21-6.27Z"/>
          <path class="cls-3" d="m264.63,52v-9.66c0-3.74-1.47-5.5-4.42-5.5s-4.67,2.14-4.67,5.47v9.7h-3.33v-17.73h3.1v1.89h.06c1.31-1.7,3.14-2.37,5.18-2.37,4.25,0,7.39,2.69,7.39,7.58v10.62h-3.33Z"/>
        </g>
        <g class="cls-4">
          <path class="cls-3" d="m272.85,52v-3.9h3.33v3.9h-3.33Z"/>
        </g>
      </g>
    </g>
    <g id="Green_Graphic" data-name="Green Graphic">
      <rect id="Green_Graphic-2" data-name="Green Graphic-2" class="cls-3" width="302" height="12"/>
      <rect id="Green_Graphic-3" data-name="Green Graphic-3" class="cls-3" x="300" width="12" height="395"/>
    </g>
    <g id="Blue_Graphic" data-name="Blue Graphic">
      <rect id="Blue_Graphic-2" data-name="Blue Graphic-2" class="cls-1" x="128" y="76" width="302" height="12"/>
      <path id="Blue_Graphic-3" data-name="Blue Graphic-3" class="cls-1" d="m130,76v319h-12V76h12Z"/>
    </g>
    <g id="Graphic_Design." data-name="Graphic Design.">
      <g class="cls-4">
        <g class="cls-4">
          <path class="cls-3" d="m169.24,187.01v-2.57h12.17c-.18,6.4-5.02,9.93-10.14,9.93s-9.65-4.52-9.65-9.72c0-6.24,4.78-10.24,9.65-10.24,3.69,0,6.86,1.74,8.81,5.2h-3.28c-1.64-1.87-3.28-2.63-5.41-2.63-3.74,0-6.97,3.54-6.97,7.33,0,4.06,3.2,7.49,7.07,7.49,3.04,0,5.49-1.69,6.71-4.78h-8.97Z"/>
        </g>
        <g class="cls-4">
          <path class="cls-3" d="m183.98,194v-14.4h2.52v1.3h.05c.65-.96,1.77-1.59,3.67-1.69v2.78c-2.34.08-3.54,1.51-3.54,3.93v8.09h-2.7Z"/>
        </g>
        <g class="cls-4">
          <path class="cls-3" d="m203.92,194v-2.24h-.05c-1.01,1.72-2.83,2.6-4.89,2.6-4.21,0-7.64-3.17-7.64-7.33,0-4.6,3.3-7.83,7.54-7.83,2.11,0,3.87.78,4.99,2.42h.05v-2.03h2.7v14.4h-2.7Zm.05-7.18c0-2.81-2.03-5.15-5.02-5.15-2.7,0-4.91,2.31-4.91,5.15s2.21,5.07,4.91,5.07,5.02-2.34,5.02-5.07Z"/>
        </g>
        <g class="cls-4">
          <path class="cls-3" d="m210.63,198.81v-19.21h2.47v2.21h.05c1.22-1.74,3.07-2.6,5.12-2.6,4.29,0,7.46,3.33,7.46,7.77,0,4.06-3.15,7.38-7.28,7.38-2.18,0-4.13-.88-5.07-2.44h-.05v6.89h-2.7Zm12.4-11.99c0-2.63-2.08-5.15-4.97-5.15-2.7,0-4.78,2.42-4.78,5.1,0,2.81,2.08,5.12,4.89,5.12s4.86-2.31,4.86-5.07Z"/>
          <path class="cls-3" d="m238.53,194v-7.83c0-3.09-1.2-4.5-3.59-4.5s-3.8,1.72-3.8,4.52v7.8h-2.7v-19.24h2.7v6.37h.05c.86-1.27,2.24-1.92,4.03-1.92,3.43,0,6.01,2.18,6.01,6.14v8.66h-2.7Z"/>
          <path class="cls-3" d="m244.64,177.93v-3.17h2.7v3.17h-2.7Zm0,16.07v-14.4h2.7v14.4h-2.7Z"/>
          <path class="cls-3" d="m264.56,189.24c-1.14,3.25-3.9,5.12-7.1,5.12-4.13,0-7.38-3.33-7.38-7.44,0-4.34,3.15-7.72,7.36-7.72,3.28,0,6.27,2.05,7.12,5.17h-2.99c-.81-1.69-2.11-2.7-4.06-2.7-2.83,0-4.73,2.16-4.73,5.1s1.95,5.12,4.68,5.12c1.85,0,3.33-.99,4.08-2.65h3.02Z"/>
        </g>
      </g>
      <g class="cls-4">
        <g class="cls-4">
          <path class="cls-3" d="m167.45,230v-19.24h6.68c5.82,0,9.39,4.6,9.39,9.62,0,5.88-3.72,9.62-9.8,9.62h-6.27Zm6.16-2.57c4.45,0,7.1-2.6,7.1-6.99s-3.04-7.1-6.97-7.1h-3.48v14.09h3.35Z"/>
          <path class="cls-3" d="m188.51,223.97c.62,2.39,2.52,3.93,4.73,3.93,1.69,0,3.28-.88,4.11-2.42h2.7c-1.12,2.96-3.82,4.89-6.92,4.89-4.06,0-7.33-3.59-7.33-7.44,0-4.55,3.43-7.72,7.25-7.72,4.24,0,7.46,3.28,7.46,7.41,0,.44,0,.86-.08,1.35h-11.93Zm9.31-2.08c-.21-2.44-2.37-4.21-4.68-4.21s-4.42,1.74-4.63,4.21h9.31Z"/>
          <path class="cls-3" d="m208.89,219.42c-.13-1.04-.73-1.74-1.85-1.74-1.04,0-1.69.7-1.69,1.53,0,1.22,1.25,1.59,2.68,2.03,2.03.62,3.9,1.85,3.9,4.52s-2.03,4.6-4.84,4.6c-2.6,0-5.1-1.77-5.1-5.1h2.7c.13,1.74,1.01,2.63,2.44,2.63,1.25,0,2.08-.81,2.08-1.98,0-.99-.75-1.64-2.44-2.18-3.54-1.12-4.13-2.65-4.13-4.29,0-2.55,2.16-4.24,4.52-4.24s4.34,1.66,4.42,4.21h-2.7Z"/>
          <path class="cls-3" d="m214.25,213.93v-3.17h2.7v3.17h-2.7Zm0,16.07v-14.4h2.7v14.4h-2.7Z"/>
          <path class="cls-3" d="m232.35,228.1c-1.12,1.51-2.91,2.26-4.97,2.26-4.13,0-7.7-3.56-7.7-7.46,0-4.34,3.38-7.7,7.72-7.7,1.87,0,3.85.78,4.99,2.05v-1.66h2.7v12.51c0,4.68-2.89,7.57-7.77,7.57-3.3,0-5.9-1.74-7.12-4.55h3.02c1.01,1.43,2.37,2.08,4.13,2.08,3.3,0,5.04-1.79,5.04-5.1h-.05Zm.05-5.3c0-3.38-2.57-5.12-5.07-5.12-2.68,0-4.94,2.31-4.94,5.12s2.29,5.1,4.97,5.1c3.15,0,5.04-2.76,5.04-5.1Z"/>
          <path class="cls-3" d="m248.62,230v-7.85c0-3.04-1.2-4.47-3.59-4.47s-3.8,1.74-3.8,4.45v7.88h-2.7v-14.4h2.52v1.53h.05c1.07-1.38,2.55-1.92,4.21-1.92,3.46,0,6.01,2.18,6.01,6.16v8.63h-2.7Z"/>
        </g>
        <g class="cls-4">
          <path class="cls-3" d="m255.3,230v-3.17h2.7v3.17h-2.7Z"/>
        </g>
      </g>
    </g>
    <g id="UI_UX." data-name="UI UX.">
      <g class="cls-4">
        <g class="cls-4">
          <path class="cls-2" d="m186.53,301.21h2.81v13.16c0,4.03-2.83,6.45-6.45,6.45s-6.45-2.44-6.45-6.45v-13.16h2.81v12.95c0,2.39,1.35,4.08,3.64,4.08s3.64-1.72,3.64-4.08v-12.95Z"/>
          <path class="cls-2" d="m193.21,320.45v-19.24h2.81v19.24h-2.81Z"/>
          <path class="cls-2" d="m199.01,323.05l7.49-21.84h2.96l-7.49,21.84h-2.96Z"/>
          <path class="cls-2" d="m222.9,301.21h2.81v13.16c0,4.03-2.83,6.45-6.45,6.45s-6.45-2.44-6.45-6.45v-13.16h2.81v12.95c0,2.39,1.35,4.08,3.64,4.08s3.64-1.72,3.64-4.08v-12.95Z"/>
          <path class="cls-2" d="m240.81,320.45l-4.78-7.33-4.84,7.33h-3.28l6.37-9.65-6.37-9.59h3.35l4.76,7.28,4.81-7.28h3.33l-6.42,9.59,6.37,9.65h-3.3Z"/>
        </g>
        <g class="cls-4">
          <path class="cls-2" d="m246.74,320.45v-3.17h2.7v3.17h-2.7Z"/>
        </g>
      </g>
    </g>
  </g>
</svg>